<?xml version="1.0" encoding="utf-8"?>
<svg viewBox="246.187 144.174 717.162 701.058" style="width: 1em; height: 1em;vertical-align: middle;fill: currentColor;overflow: hidden;" xmlns="http://www.w3.org/2000/svg">
  <path d="M930.7 469.8c6.8-8.1-3.1-12.2 1.4-22.5s32.1-2.7 26.3-23.7c-5.8-21-22.8-6.7-33.4-8.3-10.6-1.6-5.1-14.4-17-18.5s-16.9 18.8-26.1 20.2c-9.2 1.4-9.1-18.4-23.9-18.9-14.1-0.4-38.9 50-41.3 55l-187.5 24.3L794.8 308l2.6-2.6s57.4 4.2 69.3-10.1c12-14.3-10.8-20.8-6.2-29.3 4.6-8.5 31-5.6 33-16s-8.7-9.1-9.8-20.2c-1.2-11.2 26.6-18.1 11.2-33.6-15.4-15.4-23.1 5.4-33.2 9.3-10 3.9-11.6-10-23.9-7.7-12.3 2.3-5.4 24.7-12.7 30.5-7.3 5.8-17-11.6-30.1-4.6-13.1 6.9-9.1 67.5-9.1 68L612.6 461l41-169.3c3.5-1.7 55.7-27 55.2-41.4-0.4-14.8-20.3-14.7-18.9-23.9 1.4-9.2 24.3-14.2 20.2-26.1-4.1-11.9-16.9-6.4-18.5-17-1.6-10.6 12.7-27.6-8.3-33.4-21-5.8-13.4 21.8-23.7 26.3-10.3 4.5-14.4-5.4-22.5 1.4s7.4 28.4 2.3 36.6c-5.1 8.2-22-8.4-28.5 9.1-6.2 16.5 22 60.4 24.9 64.8l-48.4 196.8 0.4 0.1-308.4 299.7c-8 8-8 20.9 0 28.9l0.6 0.6c8 8 20.9 8 28.9 0l296.3-312.1 0.1 0.4L820 470.9c3 2 48.2 31.4 65.1 25.1 17.4-6.5 0.9-23.4 9.1-28.5 8.2-5.1 29.7 10.4 36.5 2.3z" style="fill: rgb(255, 255, 255);"/>
  <path d="M636 288c-2.9-4.4-31.1-48.3-24.9-64.8 6.5-17.4 23.4-0.9 28.5-9.1 5.1-8.2-10.4-29.8-2.3-36.6 8.1-6.8 12.2 3.1 22.5-1.4s2.7-32.1 23.7-26.3c21 5.8 6.7 22.8 8.3 33.4 1.6 10.6 14.4 5.1 18.5 17s-18.8 16.9-20.2 26.1c-1.4 9.2 18.4 9.1 18.9 23.9 0.4 14.3-51.8 39.7-55.2 41.4L636 288zM797.3 305.5s57.4 4.2 69.3-10.1c12-14.3-10.8-20.8-6.2-29.3 4.6-8.5 31-5.6 33-16 1.9-10.4-8.7-9.1-9.8-20.2-1.2-11.2 26.6-18.1 11.2-33.6-15.4-15.4-23.1 5.4-33.2 9.3-10 3.9-11.6-10-23.9-7.7-12.3 2.3-5.4 24.7-12.7 30.5-7.3 5.8-17-11.6-30.1-4.6-13.1 6.9-9.1 67.5-9.1 68l11.5 13.7zM816.7 453.2c2.4-5 27.2-55.4 41.3-55 14.8 0.4 14.7 20.3 23.9 18.9 9.2-1.4 14.2-24.3 26.1-20.2 11.9 4.1 6.4 16.9 17 18.5 10.6 1.6 27.6-12.7 33.4 8.3s-21.8 13.4-26.3 23.7c-4.5 10.3 5.4 14.4-1.4 22.5-6.8 8.1-28.4-7.4-36.6-2.3-8.2 5.1 8.4 22-9.1 28.5-16.8 6.3-62-23.1-65.1-25.1l-3.2-17.8z" style="fill: rgb(238, 238, 238);"/>
  <path d="M653.7 291.7c3.5-1.7 55.7-27 55.2-41.4-0.2-5.5-3-8.9-6.4-11.6 0.2 0.8 0.3 1.7 0.3 2.6 0.4 14.3-51.8 39.7-55.2 41.4l-45.7 188.6 10.9-10.6 40.9-169zM794.8 308.2l2.6-2.6s57.4 4.2 69.3-10.1c7.5-8.9 1.4-14.8-3.1-20.1 1 3.2 0.6 6.8-3 11.1-12 14.3-69.3 10.1-69.3 10.1l-2.6 2.6-176.1 180.5 17-2.2 165.2-169.3z" style="fill: rgb(229, 229, 229);"/>
  <path d="M854.4 257.2c-2.3 4.1 2 7.8 5.6 12.2-0.2-1.1 0-2.1 0.5-3.2 4.6-8.5 31-5.6 33-16 1.2-6.6-2.6-8.5-5.9-11.9 0.1 0.9 0 1.8-0.2 2.9-1.9 10.4-28.4 7.5-33 16zM685.7 174.4c0.6 4.2 3.1 5.9 6 7.1 0-9.5 9.3-22.8-2.8-29.5 0.7 7.2-4.1 16-3.2 22.4z" fill="#A3DA67"/>
  <path d="M958.4 423.6c-3.5 5.1-26.5 9.1-32.4 14.7-4.5 10.3 5.4 14.4-1.4 22.5-6.8 8.1-28.4-7.4-36.6-2.3-8.2 5.1 8.4 22-9.1 28.5-16.8 6.3-57.6-22.9-60.6-24.9l-219.1 31.5-0.1-0.4-295.9 302.9c-7.8 7.8-20.6 17.2-28.6 9.8 1 2.8 2.6 5.5 4.8 7.7l0.6 0.6c8 8 20.9 8 28.9 0l296.3-312.1 0.1 0.4L820 470.9c3 2 48.2 31.4 65.1 25.1 17.4-6.5 0.9-23.4 9.1-28.5 8.2-5.1 29.8 10.4 36.6 2.3 6.8-8.1-3.1-12.2 1.4-22.5s32-2.6 26.2-23.7z" style="fill: rgb(229, 229, 229);"/>
  <path d="M684 217.5c-0.6 3.8 2.5 6 6.2 8.3 2.3-8.8 24.1-13.9 20.1-25.5-1.3-3.7-3.3-5.7-5.7-7 1.2 10.5-19.3 15.5-20.6 24.2zM877.6 220.9c0.6 5.8 3.8 8.3 6.4 10.7-0.1-0.6-0.2-1.1-0.3-1.8-1.2-11.2 26.6-18.1 11.2-33.6-0.6 1.7-18.3 15.5-17.3 24.7zM870.9 406.5c-0.8-1.3-1.8-2.5-2.8-3.6 0.8 1.4 1.7 2.6 2.8 3.6z" fill="#A3DA67"/>
  <path d="M958.3 423.6c-16.9 7-117.4 34.7-139.7 40.2l1.3 7c3 2 48.2 31.4 65.1 25.1 17.4-6.5 0.9-23.4 9.1-28.5 8.2-5.1 29.8 10.4 36.6 2.3 6.8-8.1-3.1-12.2 1.4-22.5s32.1-2.6 26.2-23.6zM792.4 299.6l4.9 5.9s57.4 4.2 69.3-10.1c12-14.3-10.8-20.8-6.2-29.3 4.6-8.5 31-5.6 33-16 1.9-10.4-8.7-9.1-9.8-20.2-1.2-11.2 26.6-18.1 11.2-33.6-8 6.3-89.5 93.6-102.4 103.3zM683.5 149.8c21 5.8 6.7 22.8 8.3 33.4 1.6 10.6 14.4 5.1 18.5 17s-18.8 16.9-20.2 26.1c-1.4 9.2 18.4 9.1 18.9 23.9 0.4 14.3-51.8 39.7-55.2 41.4l-8.7-1.8c-0.2 0 30.6-108.3 38.4-140z" style="fill: rgb(225, 225, 225);"/>
  <path d="M841.1 437c14.6-17.4-13.2-25.4-7.5-35.8 5.7-10.4 37.9-6.8 40.3-19.6s-10.6-11.1-12-24.7c-1.4-13.7 32.5-22.1 13.7-41-18.8-18.8-28.3 6.6-40.5 11.3-12.3 4.7-14.1-12.3-29.2-9.4-15.1 2.8-6.6 30.2-15.5 37.2-9 7.1-20.7-14.1-36.8-5.7-15.1 8-10.1 76.1-9.5 84l-386 363.2c-10.4 10.4-26.6 11.9-38.8 3.8-10.1-6.8-23.7-5.5-32.3 3.2l-8.4 8.4v0.1l27 18.6c23.5 16.2 55.3 13.3 75.5-6.9L755 446.2c12 1.2 73 6.5 86.1-9.2z" style="fill: rgb(255, 255, 255);"/>
  <path d="M744 433.4c-0.6-7.9-5.6-76 9.5-84 16-8.5 27.8 12.7 36.8 5.7 9-7.1 0.5-34.4 15.5-37.2 15.1-2.8 17 14.1 29.2 9.4 12.3-4.7 21.7-30.2 40.5-11.3 18.8 18.8-15.1 27.3-13.7 41 1.4 13.7 14.4 12 12 24.7s-34.6 9.2-40.3 19.6c-5.7 10.4 22.1 18.4 7.5 35.8-13.2 15.7-74.1 10.4-86 9.2l-11-12.9z" style="fill: rgb(238, 238, 238);"/>
  <path d="M856.6 349.7c0.6 6 3.4 9 6.2 11.6-0.5-1.3-0.8-2.7-1-4.4-1.4-13.7 32.5-22.1 13.7-41l-0.4-0.4c5.8 14.3-19.7 22.3-18.5 34.2z" fill="#A3DA67"/>
  <path d="M835.9 429.8c-13.2 15.7-74.1 10.4-86 9.2L370.4 811.9c-20.2 20.2-44.5 21.5-68 5.3l-15.3-13.7-8.4 8.4v0.1l27 18.6c23.5 16.2 55.3 13.3 75.5-6.9l373.9-377.5c11.9 1.2 72.9 6.5 86-9.2 8.4-10 2.8-16.9-2.4-22.9 2.2 4.4 2.5 9.4-2.8 15.7z" style="fill: rgb(229, 229, 229);"/>
  <path d="M868.6 369c0.4 1.5 0.4 3.2 0 5.4-2.4 12.7-34.6 9.2-40.3 19.6-2.4 4.4 1.2 8.3 5 12.8-0.8-1.8-0.9-3.7 0.2-5.6 5.7-10.4 37.9-6.8 40.3-19.6 1.3-6.8-1.8-9.5-5.2-12.6z" fill="#A3DA67"/>
  <path d="M861.9 356.9c-1.4-13.7 32.5-22.1 13.7-41-5.3 2.8-125.9 124-125.9 124l5.4 6.3c11.9 1.2 72.9 6.5 86-9.2 14.6-17.4-13.2-25.4-7.5-35.8 5.7-10.4 37.9-6.8 40.3-19.6 2.3-12.7-10.6-11-12-24.7z" style="fill: rgb(225, 225, 225);"/>
  <path d="M653.6 249.4c17.4-14.6 25.4 13.2 35.8 7.5 10.4-5.7 6.8-37.9 19.6-40.3 12.7-2.4 11.1 10.6 24.7 12 13.7 1.4 22.1-32.5 41-13.7 18.8 18.8-6.6 28.3-11.3 40.5-4.7 12.3 12.3 14.1 9.4 29.2-2.8 15.1-30.2 6.6-37.2 15.5-7.1 9 14.1 20.7 5.7 36.8-8 15.1-76.1 10.1-84 9.5L294 732.4c-10.4 10.4-11.9 26.6-3.8 38.8 6.8 10.1 5.5 23.7-3.2 32.3l-8.4 8.4h-0.1l-18.6-27c-16.2-23.5-13.3-55.3 6.9-75.5l377.5-373.9c-1.1-11.9-6.4-72.9 9.3-86.1z" style="fill: rgb(255, 255, 255);"/>
  <path d="M763.4 255.6c4.7-12.3 30.2-21.7 11.3-40.5-1.2-1.2-2.4-2.2-3.6-3.1 11.8 16.3-10.4 25.2-14.7 36.6-4.7 12.3 12.3 14.1 9.4 29.2-2.8 15.1-30.2 6.6-37.2 15.5-7.1 9 14.1 20.7 5.7 36.8-8 15.1-76.1 10.1-84 9.5L280.7 719c-10.4 10.4-11.9 26.6-3.8 38.8 6.8 10.1 8.2 23.9-0.4 32.6l-7.2 7.2 9.3 14.4h0.1l8.4-8.4c8.6-8.6 10-22.2 3.2-32.3-8.1-12.2-6.6-28.4 3.8-38.8l363.2-385.9c7.9 0.6 76 5.6 84-9.5 8.5-16-12.7-27.8-5.7-36.8 7.1-9 34.4-0.5 37.2-15.5 2.8-15.1-14.1-17-9.4-29.2z" style="fill: rgb(229, 229, 229);"/>
  <path d="M644.4 335.5c-1.2-11.9-6.5-72.9 9.2-86 17.4-14.6 25.4 13.2 35.8 7.5 10.4-5.7 6.8-37.9 19.6-40.3 12.7-2.4 11.1 10.6 24.7 12 13.7 1.4 22.1-32.5 41-13.7 18.8 18.8-6.6 28.3-11.3 40.5-4.7 12.3 12.3 14.1 9.4 29.2-2.8 15.1-30.2 6.6-37.2 15.5-7.1 9 14.1 20.7 5.7 36.8-8 15.1-76.1 10.1-84 9.5l-12.9-11z" style="fill: rgb(238, 238, 238);"/>
  <path d="M763.4 255.6c4.7-12.3 30.2-21.7 11.3-40.5-6.2 6.5-123.4 126.4-123.4 126.4l5.9 5.1c7.9 0.6 76 5.6 84-9.5 8.5-16-12.7-27.8-5.7-36.8 7.1-9 34.4-0.5 37.2-15.5 2.9-15.1-14-17-9.3-29.2z" style="fill: rgb(225, 225, 225);"/>
</svg>